# This file uses centimeters as units for non-parametric coordinates.

mtllib Hex coin.mtl
g default
v 0.185214 0.365729 -0.414148
v 0.195890 0.718704 -0.218841
v 0.172876 0.020236 -0.205980
v 0.171217 0.027721 0.197494
v 0.181891 0.380696 0.392803
v 0.194229 0.726189 0.184635
v -0.157980 0.368951 -0.406688
v -0.147303 0.721927 -0.211381
v -0.170318 0.023459 -0.198521
v -0.171976 0.030944 0.204953
v -0.161303 0.383919 0.400263
v -0.148966 0.729411 0.192095
v 0.223838 0.363700 -0.504927
v 0.236896 0.795367 -0.266080
v -0.195865 0.367642 -0.495805
v -0.182807 0.799308 -0.256957
v 0.208750 -0.058813 -0.250352
v -0.210953 -0.054872 -0.241230
v 0.206722 -0.049661 0.243070
v -0.212981 -0.045719 0.252192
v 0.219775 0.382005 0.481920
v -0.199929 0.385946 0.491043
v 0.234863 0.804520 0.227344
v -0.184841 0.808461 0.236467
vt 0.516129 0.466898
vt 0.580645 0.466898
vt 0.612903 0.522771
vt 0.580645 0.578643
vt 0.516129 0.578643
vt 0.483871 0.522771
vt 0.516129 0.466898
vt 0.580645 0.466898
vt 0.612903 0.522771
vt 0.580645 0.578643
vt 0.516129 0.578643
vt 0.483871 0.522771
vt 0.516129 0.466898
vt 0.580645 0.466898
vt 0.580645 0.466898
vt 0.516129 0.466898
vt 0.612903 0.522771
vt 0.612903 0.522771
vt 0.580645 0.578643
vt 0.580645 0.578643
vt 0.516129 0.578643
vt 0.516129 0.578643
vt 0.483871 0.522771
vt 0.483871 0.522771
vt 0.516129 0.466898
vt 0.580645 0.466898
vt 0.580645 0.466898
vt 0.516129 0.466898
vt 0.612903 0.522771
vt 0.612903 0.522771
vt 0.580645 0.578643
vt 0.580645 0.578643
vt 0.516129 0.578643
vt 0.516129 0.578643
vt 0.483871 0.522771
vt 0.483871 0.522771
vn -0.014464 0.484428 -0.874712
vn -0.014464 0.484428 -0.874712
vn -0.014464 0.484428 -0.874712
vn -0.014464 0.484428 -0.874712
vn -0.023459 -0.515328 -0.856672
vn -0.023459 -0.515328 -0.856672
vn -0.023459 -0.515328 -0.856672
vn -0.023459 -0.515328 -0.856672
vn -0.008987 -0.999788 0.018509
vn -0.008987 -0.999788 0.018509
vn -0.008987 -0.999788 0.018509
vn -0.008987 -0.999788 0.018509
vn 0.014463 -0.484433 0.874709
vn 0.014463 -0.484433 0.874709
vn 0.014463 -0.484433 0.874709
vn 0.014463 -0.484433 0.874709
vn 0.023461 0.515329 0.856671
vn 0.023461 0.515329 0.856671
vn 0.023461 0.515329 0.856671
vn 0.023461 0.515329 0.856671
vn 0.008986 0.999788 -0.018508
vn 0.008986 0.999788 -0.018508
vn 0.008986 0.999788 -0.018508
vn 0.008986 0.999788 -0.018508
vn -0.014464 0.484429 -0.874711
vn -0.014464 0.484429 -0.874711
vn -0.014464 0.484429 -0.874711
vn -0.014464 0.484429 -0.874711
vn -0.023460 -0.515327 -0.856672
vn -0.023460 -0.515327 -0.856672
vn -0.023460 -0.515327 -0.856672
vn -0.023460 -0.515327 -0.856672
vn -0.008988 -0.999788 0.018510
vn -0.008988 -0.999788 0.018510
vn -0.008988 -0.999788 0.018510
vn -0.008988 -0.999788 0.018510
vn 0.014462 -0.484434 0.874708
vn 0.014462 -0.484434 0.874708
vn 0.014462 -0.484434 0.874708
vn 0.014462 -0.484434 0.874708
vn 0.023460 0.515329 0.856672
vn 0.023460 0.515329 0.856671
vn 0.023460 0.515329 0.856671
vn 0.023460 0.515329 0.856671
vn 0.008986 0.999788 -0.018509
vn 0.008986 0.999788 -0.018509
vn 0.008986 0.999788 -0.018509
vn 0.008986 0.999788 -0.018509
vn 0.891387 -0.239779 0.384623
vn 0.891387 -0.239779 0.384623
vn 0.891387 -0.239779 0.384623
vn 0.891387 -0.239779 0.384623
vn -0.903135 -0.186633 0.386672
vn -0.903135 -0.186633 0.386672
vn -0.903135 -0.186633 0.386672
vn -0.903135 -0.186633 0.386672
vn 0.903761 0.196764 0.380132
vn 0.903761 0.196764 0.380132
vn 0.903761 0.196764 0.380132
vn 0.903761 0.196764 0.380132
vn -0.890583 0.257638 0.374814
vn -0.890583 0.257638 0.374814
vn -0.890583 0.257638 0.374814
vn -0.890583 0.257638 0.374814
vn 0.909771 0.415092 -0.003959
vn 0.909771 0.415092 -0.003959
vn 0.909771 0.415092 -0.003959
vn 0.909771 0.415092 -0.003959
vn -0.884846 0.465722 -0.012276
vn -0.884846 0.465722 -0.012276
vn -0.884846 0.465722 -0.012276
vn -0.884846 0.465722 -0.012276
vn 0.903134 0.186642 -0.386669
vn 0.903134 0.186642 -0.386669
vn 0.903134 0.186642 -0.386669
vn 0.903134 0.186642 -0.386669
vn -0.891385 0.239777 -0.384629
vn -0.891385 0.239777 -0.384629
vn -0.891385 0.239777 -0.384629
vn -0.891385 0.239777 -0.384629
vn 0.890585 -0.257635 -0.374810
vn 0.890585 -0.257635 -0.374810
vn 0.890585 -0.257635 -0.374810
vn 0.890585 -0.257635 -0.374810
vn -0.903755 -0.196771 -0.380141
vn -0.903755 -0.196771 -0.380141
vn -0.903755 -0.196771 -0.380141
vn -0.903755 -0.196771 -0.380141
vn 0.884848 -0.465717 0.012283
vn 0.884848 -0.465717 0.012283
vn 0.884848 -0.465717 0.012283
vn 0.884848 -0.465717 0.012283
vn -0.909770 -0.415094 0.003951
vn -0.909770 -0.415094 0.003951
vn -0.909770 -0.415094 0.003951
vn -0.909770 -0.415094 0.003951
s off
g pSolid1
usemtl initialShadingGroup
f 14/25/1 13/26/2 15/27/3 16/28/4
f 13/26/5 17/29/6 18/30/7 15/27/8
f 17/29/9 19/31/10 20/32/11 18/30/12
f 19/31/13 21/33/14 22/34/15 20/32/16
f 21/33/17 23/35/18 24/36/19 22/34/20
f 23/35/21 14/25/22 16/28/23 24/36/24
f 2/13/25 1/14/26 7/15/27 8/16/28
f 1/14/29 3/17/30 9/18/31 7/15/32
f 3/17/33 4/19/34 10/20/35 9/18/36
f 4/19/37 5/21/38 11/22/39 10/20/40
f 5/21/41 6/23/42 12/24/43 11/22/44
f 6/23/45 2/13/46 8/16/47 12/24/48
f 2/1/49 1/2/50 13/26/51 14/25/52
f 7/8/53 8/7/54 16/28/55 15/27/56
f 1/2/57 3/3/58 17/29/59 13/26/60
f 9/9/61 7/8/62 15/27/63 18/30/64
f 3/3/65 4/4/66 19/31/67 17/29/68
f 10/10/69 9/9/70 18/30/71 20/32/72
f 4/4/73 5/5/74 21/33/75 19/31/76
f 11/11/77 10/10/78 20/32/79 22/34/80
f 5/5/81 6/6/82 23/35/83 21/33/84
f 12/12/85 11/11/86 22/34/87 24/36/88
f 6/6/89 2/1/90 14/25/91 23/35/92
f 8/7/93 12/12/94 24/36/95 16/28/96
